<?xml version="1.0" encoding="utf-8"?>
<!-- Generator: Adobe Illustrator 22.1.0, SVG Export Plug-In . SVG Version: 6.00 Build 0)  -->
<svg version="1.1"
	 id="Capa_1" inkscape:version="0.92.2 5c3e80d, 2017-08-06" sodipodi:docname="ballot1.svg" xmlns:cc="http://creativecommons.org/ns#" xmlns:dc="http://purl.org/dc/elements/1.1/" xmlns:inkscape="http://www.inkscape.org/namespaces/inkscape" xmlns:rdf="http://www.w3.org/1999/02/22-rdf-syntax-ns#" xmlns:sodipodi="http://sodipodi.sourceforge.net/DTD/sodipodi-0.dtd" xmlns:svg="http://www.w3.org/2000/svg"
	 xmlns="http://www.w3.org/2000/svg" xmlns:xlink="http://www.w3.org/1999/xlink" x="0px" y="0px" viewBox="0 0 60 60"
	 style="enable-background:new 0 0 60 60;" xml:space="preserve">
<style type="text/css">
	.st0{fill:#FFFFFF;fill-opacity:0;}
	.st1{fill:#546E7A;}
	.st2{fill:#2196F3;}
</style>
<sodipodi:namedview  bordercolor="#666666" borderopacity="1" gridtolerance="10" guidetolerance="10" id="namedview41" inkscape:current-layer="g8" inkscape:cx="16.755315" inkscape:cy="47.239882" inkscape:pageopacity="0" inkscape:pageshadow="2" inkscape:window-height="799" inkscape:window-maximized="1" inkscape:window-width="1440" inkscape:window-x="0" inkscape:window-y="1" inkscape:zoom="15.733333" objecttolerance="10" pagecolor="#ffffff" showgrid="false">
	</sodipodi:namedview>
<g id="g8">
	<path id="path2" class="st0" d="M29,25.9l26.5-13.2l-26-12.5c-0.3-0.1-0.6-0.1-0.9,0l-25,13c0,0,0,0,0,0c0,0,0,0,0,0L29,25.9z"/>
	<path id="path4" class="st1" d="M30,27.6V60c0.1,0,0.3,0,0.4-0.1c0,0,0,0,0,0l26-13c0.3-0.2,0.6-0.5,0.6-0.9V14.1L30,27.6z"/>
	<path id="path6" class="st2" d="M28,27.6L3,15.1V46c0,0.4,0.2,0.7,0.6,0.9L28,59.1V27.6z"/>
	<polygon id="rect852" class="st1" points="35.5,16 33.8,16.7 22.8,9.7 24.5,9 	"/>
</g>
<g id="g10">
</g>
<g id="g12">
</g>
<g id="g14">
</g>
<g id="g16">
</g>
<g id="g18">
</g>
<g id="g20">
</g>
<g id="g22">
</g>
<g id="g24">
</g>
<g id="g26">
</g>
<g id="g28">
</g>
<g id="g30">
</g>
<g id="g32">
</g>
<g id="g34">
</g>
<g id="g36">
</g>
<g id="g38">
</g>
</svg>
