<?xml version="1.0" encoding="utf-8"?>
<!-- Generator: Adobe Illustrator 22.1.0, SVG Export Plug-In . SVG Version: 6.00 Build 0)  -->
<svg version="1.1"
	 id="svg115" inkscape:version="0.92.2 5c3e80d, 2017-08-06" sodipodi:docname="jugaar.svg" xmlns:cc="http://creativecommons.org/ns#" xmlns:dc="http://purl.org/dc/elements/1.1/" xmlns:inkscape="http://www.inkscape.org/namespaces/inkscape" xmlns:rdf="http://www.w3.org/1999/02/22-rdf-syntax-ns#" xmlns:sodipodi="http://sodipodi.sourceforge.net/DTD/sodipodi-0.dtd" xmlns:svg="http://www.w3.org/2000/svg" xmlns:xhtml="http://www.w3.org/1999/xhtml"
	 xmlns="http://www.w3.org/2000/svg" xmlns:xlink="http://www.w3.org/1999/xlink" x="0px" y="0px" viewBox="0 0 300 100"
	 style="enable-background:new 0 0 300 100;" xml:space="preserve">
<style type="text/css">
	.st0{fill:#FFFFFF;}
	.st1{fill:#57068C;stroke:#FFFFFF;}
	.st2{fill:#FDD835;stroke:#FFFFFF;}
	.st3{fill:#FFFFFF;stroke:#FFFFFF;}
	.st4{fill:#BDBDBD;stroke:#FFFFFF;}
</style>
<sodipodi:namedview  bordercolor="#666666" borderopacity="1" gridtolerance="10" guidetolerance="10" id="namedview32" inkscape:current-layer="svg115" inkscape:cx="150" inkscape:cy="50" inkscape:pageopacity="0" inkscape:pageshadow="2" inkscape:window-height="802" inkscape:window-maximized="1" inkscape:window-width="1440" inkscape:window-x="0" inkscape:window-y="1" inkscape:zoom="3.1266667" objecttolerance="10" pagecolor="#ffffff" showgrid="false">
	</sodipodi:namedview>
<xhtml:defs  style="height:auto;overflow-x:visible;overflow-y:visible;width:auto;perspective-origin:50% 50%;transform-origin:50% 50%;">
	
		<xhtml:style  style="display:none;height:auto;overflow-x:visible;overflow-y:visible;width:auto;perspective-origin:50% 50%;transform-origin:50% 50%;" type="text/css">
		</xhtml:style>
</xhtml:defs>
<xhtml:defs  style="height:auto;overflow-x:visible;overflow-y:visible;width:auto;perspective-origin:50% 50%;transform-origin:50% 50%;">
	
		<xhtml:style  style="display:none;height:auto;overflow-x:visible;overflow-y:visible;width:auto;perspective-origin:50% 50%;transform-origin:50% 50%;" type="text/css">
		</xhtml:style>
</xhtml:defs>
<g id="text125" transform="matrix(1.0585405,0,0,1,-3.6619313,0)">
	<path id="path842" inkscape:connector-curvature="0" class="st0" d="M62.6,5.3h8.5v57.5c0,1.9,0.5,3.4,1.4,4.4c1,1,2.4,1.5,4.3,1.5
		c0.7,0,1.5-0.1,2.5-0.3c1-0.3,1.9-0.5,2.7-0.9l1.4,6.9c-1.4,0.6-3.1,1.1-5,1.4c-1.9,0.4-3.6,0.6-5.1,0.6c-3.3,0-5.9-0.9-7.8-2.8
		c-1.9-1.9-2.8-4.5-2.8-7.8L62.6,5.3z"/>
</g>
<g id="text141" transform="matrix(1.0148406,0,0,1,-1.9641386,0)">
	<path id="path845" inkscape:connector-curvature="0" class="st0" d="M162.9,72.6c-0.5,0.3-1.2,0.6-2,1c-0.8,0.3-1.8,0.7-2.9,1.1
		c-1,0.3-2.2,0.6-3.5,0.8c-1.2,0.3-2.5,0.4-3.9,0.4c-3.1,0-5.8-0.8-8-2.5c-2.3-1.7-3.4-4.4-3.4-8V31.3h-6.9v-6.7h6.9V7.8h8.5v16.8
		H159v6.7h-11.3v31.3c0.1,1.9,0.7,3.2,1.8,4.1s2.4,1.3,3.9,1.3c1.7,0,3.2-0.3,4.5-0.8c1.4-0.6,2.4-1,2.9-1.4L162.9,72.6z"/>
</g>
<g id="g367" transform="matrix(0.10290679,0,0,0.10290805,108.0849,51.133766)">
	<g id="g347">
		<path id="path343" class="st1" d="M-3.4,240C-135.9,238.1-241.9,129.1-240-3.4c1.1-75.3,37.5-145.8,98.3-190.3l58.6,81
			c-62.2,45.9-75.4,133.6-29.5,195.8c25.9,35,66.5,56,110.1,56.8L-3.4,240z"/>
	</g>
	<g id="g353">
		<path id="path349" class="st2" d="M-139.5-195.3c107-76.4,255.5-52.5,333.2,53.6l-81,58.6c-45.3-61.3-131.3-75.2-193.5-31.1
			L-139.5-195.3z"/>
	</g>
	<g id="g359">
		<path id="path355" class="st3" d="M195.3-139.5c64,89.6,58.8,211.2-12.5,295L107,90.3c41.1-48.7,44.1-119.1,7.3-171.2L195.3-139.5
			z"/>
	</g>
	<g id="g365">
		<path id="path361" class="st4" d="M181,157.6C135.3,210.1,69,240.2-0.6,240l0.8-100c40.2-0.1,78.4-17.4,105-47.6L181,157.6z"/>
	</g>
</g>
<g id="text31" transform="matrix(1.0499812,0,0,0.98510434,-0.26967951,0)">
	<path id="path839" inkscape:connector-curvature="0" class="st0" d="M15.3,54.7c0,5.1,1.4,9.2,4.2,12.3c2.8,3.1,6.6,4.6,11.2,4.6
		c4.5,0,8.1-1.4,10.7-4.2c2.6-2.8,3.9-6.7,3.9-11.8c0-5.6-1.3-10-3.9-13.2c-2.6-3.2-6.2-4.8-10.9-4.8c-4.7,0-8.5,1.5-11.2,4.5
		S15.3,49.4,15.3,54.7z M7.7,99.6V31.8h7.4v8.6c1.8-3.3,4.1-5.8,7-7.6c2.9-1.8,6.1-2.6,9.7-2.6c6.6,0,11.9,2.2,15.8,6.7
		c4,4.5,6,10.4,6,17.8c0,7.5-2,13.5-5.9,18c-3.9,4.4-9.1,6.6-15.6,6.6c-3.8,0-7-0.8-9.8-2.5c-2.8-1.7-5.1-4.3-6.8-7.7v30.5H7.7z"/>
</g>
<g id="text859" transform="matrix(1.10169,0,0,0.96522981,-10.731025,0)">
	<path id="path843" inkscape:connector-curvature="0" class="st0" d="M163.4,76.6V31.4h6.9v9.4c2.1-3.9,4.3-6.7,6.6-8.4
		c2.3-1.7,5.2-2.5,8.5-2.5c0.9,0,1.8,0.1,2.7,0.2c0.9,0.1,1.7,0.3,2.6,0.6l-2.6,7c-0.9-0.3-1.7-0.5-2.5-0.6
		c-0.8-0.2-1.5-0.2-2.3-0.2c-4.1,0-7.1,1.5-9.2,4.4c-2,2.9-3.1,7.4-3.1,13.3v22L163.4,76.6z"/>
</g>
<g id="text863" transform="matrix(1.0232308,0,0,1.0009376,-4.7768856,0)">
	<path id="path846" inkscape:connector-curvature="0" class="st0" d="M233,47.2c-0.3-3.9-1.6-6.9-3.9-9c-2.3-2.1-5.5-3.2-9.6-3.2
		c-3.7,0-6.8,1.1-9.2,3.3c-2.5,2.2-3.9,5.2-4.3,8.9H233z M241.1,53.4H206V54c0,4.8,1.4,8.6,4.1,11.5c2.7,2.9,6.3,4.4,10.6,4.4
		c3,0,5.7-0.8,8-2.4c2.4-1.6,4.5-4,6.4-7.3l5.8,3.9c-2.2,4-5.1,7-8.5,9.1c-3.5,2-7.5,3.1-12,3.1c-6.8,0-12.2-2.2-16.4-6.7
		c-4.2-4.5-6.3-10.3-6.3-17.6c0-6.9,2.1-12.6,6.2-17.1c4.1-4.4,9.5-6.6,16-6.6c6.6,0,11.7,2.1,15.6,6.3c3.8,4.2,5.8,9.9,5.8,17.2
		L241.1,53.4z"/>
</g>
<g id="text863-4" transform="matrix(1.0232306,0,0,1.0009376,-5.9778006,0)">
	<path id="path849" inkscape:connector-curvature="0" class="st0" d="M282.7,47.2c-0.3-3.9-1.6-6.9-3.9-9c-2.3-2.1-5.5-3.2-9.6-3.2
		c-3.7,0-6.8,1.1-9.2,3.3c-2.5,2.2-3.9,5.2-4.3,8.9H282.7z M290.8,53.4h-35.2V54c0,4.8,1.4,8.6,4.1,11.5c2.7,2.9,6.3,4.4,10.6,4.4
		c3,0,5.7-0.8,8-2.4c2.4-1.6,4.5-4,6.4-7.3l5.8,3.9c-2.2,4-5.1,7-8.5,9.1c-3.5,2-7.5,3.1-12,3.1c-6.8,0-12.2-2.2-16.4-6.7
		c-4.2-4.5-6.3-10.3-6.3-17.6c0-6.9,2.1-12.6,6.2-17.1c4.1-4.4,9.5-6.6,16-6.6c6.6,0,11.7,2.1,15.6,6.3c3.8,4.2,5.8,9.9,5.8,17.2
		L290.8,53.4z"/>
</g>
</svg>
